<?xml version="1.0" encoding="UTF-8"?>
<svg width="41px" height="25px" viewBox="0 0 41 25" version="1.1" xmlns="http://www.w3.org/2000/svg" xmlns:xlink="http://www.w3.org/1999/xlink">
    <!-- Generator: Sketch 51.2 (57519) - http://www.bohemiancoding.com/sketch -->
    <title>Combined Shape</title>
    <desc>Created with Sketch.</desc>
    <defs></defs>
    <g id="Symbols" stroke="none" stroke-width="1" fill="none" fill-rule="evenodd">
        <g id="✱-/-overrides-/-recursos-ibercaja-/-imagotipo-blanco" transform="translate(-15.000000, -23.000000)" fill="#FFFFFF">
            <path d="M27.060203,33.9325922 C27.0628338,33.8534685 27.1000732,33.7672033 27.1042525,33.74642 C27.1092984,33.7244633 27.1424123,33.6589071 27.1474583,33.6419691 C27.1515581,33.6234628 27.1890872,33.5412823 27.1890872,33.5045833 C27.1931871,33.4669434 27.223778,33.3919771 27.228824,33.3857038 C27.2512153,33.245495 27.2909521,33.222911 27.2909521,33.2091097 C27.2925289,33.1953084 27.3414114,33.0783109 27.3414114,33.0783109 C27.3414114,33.0783109 27.3972321,32.9437481 27.4013319,32.9293194 C27.4079547,32.9155181 27.4767056,32.74457 27.4782824,32.731396 C27.4808054,32.7185357 27.5271649,32.6303955 27.5322108,32.6125165 C27.5322108,32.5965195 27.5896084,32.5184166 27.5962311,32.4923823 C27.597808,32.4704257 27.6716048,32.3386859 27.6757046,32.3277076 C27.6823274,32.3192386 27.7687391,32.1304115 27.7769387,32.1197468 C27.7819846,32.1100232 27.8308671,32.029411 27.8415897,32.0109047 C27.8523124,31.9911437 27.9147558,31.8873202 27.9213786,31.8732052 C27.9280014,31.8575219 27.9853989,31.7533847 27.9961215,31.7411517 C28.003375,31.7273504 28.0541498,31.6555208 28.0541498,31.6388965 C28.058565,31.6244678 28.0916789,31.5905919 28.1005093,31.5651849 C28.109655,31.5178213 28.2200349,31.3471869 28.2307575,31.3384042 C28.2399033,31.3311899 28.27964,31.2505777 28.2903626,31.2395994 C28.3036082,31.2270527 28.3701515,31.0934309 28.3900198,31.0598686 C28.4098882,31.0288157 28.4653935,30.9695327 28.4653935,30.9695327 C28.4653935,30.9695327 28.5275216,30.8685322 28.5477053,30.8506532 C28.5625277,30.8308923 28.5918572,30.7791373 28.6006876,30.761572 C28.6088873,30.7396154 28.7426045,30.5536113 28.7558501,30.531341 C28.7709879,30.5100117 28.8022097,30.4711171 28.8082017,30.4635891 C28.8198704,30.4566884 28.9062821,30.3619612 28.9217352,30.3214983 C28.9368731,30.279467 28.9923783,30.2233207 29.003101,30.2120288 C29.0147697,30.2007368 29.0828898,30.1383172 29.0945585,30.1088326 C29.1052811,30.0787206 29.1939004,29.9777201 29.2005232,29.9654871 C29.2115611,29.9563908 29.3285638,29.7835607 29.3377095,29.7741507 C29.3484321,29.7628587 29.5253552,29.5570936 29.5395469,29.5429787 C29.5502696,29.5250997 29.6366812,29.4269222 29.6540266,29.4084158 C29.6723181,29.3886549 29.8000433,29.2434274 29.8000433,29.2434274 C29.8000433,29.2434274 29.8290575,29.2227254 29.8489258,29.1879085 C29.8687942,29.1540325 30.1012226,28.8940032 30.1144682,28.8823976 C30.1280291,28.8720466 30.1743887,28.8196643 30.194257,28.803981 C30.2166484,28.7895523 30.2721537,28.7487757 30.2923374,28.7105085 C30.3099982,28.6709865 30.4317314,28.5630853 30.4317314,28.5630853 C30.4317314,28.5630853 30.5594566,28.4278952 30.5796403,28.4112709 C30.5995087,28.3955875 30.867574,28.1142289 30.8874424,28.1016823 C30.9098337,28.091645 31.110725,27.8962309 31.110725,27.8962309 C31.110725,27.8962309 31.1797913,27.8429076 31.188937,27.8203237 C31.2021826,27.7958577 31.2923787,27.7077175 31.31477,27.6967392 C31.3346384,27.6854472 31.3895129,27.6352606 31.3895129,27.6352606 C31.4409184,27.5791143 31.4756092,27.54367 31.4756092,27.54367 C31.4756092,27.54367 31.6307717,27.4134985 31.6348715,27.4037749 C31.6399175,27.3946786 31.8058026,27.2682711 31.8058026,27.2682711 L31.942989,27.1606835 C31.9653803,27.1296306 32.0517919,27.060624 32.0669297,27.055919 C32.0852213,27.0487047 32.1315808,26.9972634 32.1423034,26.9891081 C32.1539721,26.9800118 32.2283997,26.9072412 32.2283997,26.9072412 C32.2283997,26.9072412 32.2955737,26.8633279 32.3132344,26.850154 C32.3331028,26.8344707 32.3573864,26.804986 32.3728396,26.7833431 C32.4431673,26.7466441 32.5601699,26.6603859 32.5601699,26.6603859 C32.5784614,26.6362336 32.6024296,26.6362336 32.6159906,26.614277 C32.6267132,26.589811 32.6913642,26.555935 32.6913642,26.555935 C32.7352008,26.5236274 32.8969861,26.4038069 32.9036089,26.4016112 C32.9502838,26.3479743 32.9635293,26.3282133 33.0124118,26.3156667 C33.0628712,26.3065704 33.0644481,26.2770857 33.078009,26.2683031 C33.0893624,26.2604614 33.1227917,26.2344271 33.147706,26.2287811 C33.1931194,26.1732622 33.2088879,26.1773399 33.2180337,26.1763989 C33.2271795,26.1732622 33.3034992,26.1287216 33.3110681,26.1211936 C33.3176909,26.1139793 33.3590045,26.0948457 33.3722501,26.080417 C33.4015796,26.0565784 33.452039,26.0386994 33.4570849,26.0242707 C33.4630769,26.0010594 33.5211052,25.9784755 33.5368737,25.9737705 C33.5475964,25.9668698 33.7052818,25.8768476 33.7093816,25.8696333 C33.7601564,25.8363847 33.7957933,25.8363847 33.8197615,25.8075274 C33.8462526,25.7771017 33.8926122,25.7730241 33.899235,25.7633004 C33.9083807,25.7542041 34.0386289,25.6892752 34.0496669,25.6779832 C34.089719,25.6478713 34.0840423,25.6569676 34.1143179,25.6312469 C34.1436474,25.6080356 34.2871412,25.5434204 34.2871412,25.5434204 C34.3312932,25.5038985 34.3867985,25.4904108 34.3949981,25.4838238 C34.4022516,25.4769232 34.4621721,25.4474385 34.4747869,25.4361465 C34.4905555,25.4267366 34.5545758,25.3966246 34.5791747,25.3837643 C34.6015661,25.374668 34.6854547,25.3288727 34.6879777,25.322913 C34.6898699,25.3197764 34.749475,25.2931147 34.7677666,25.2899781 C34.8119185,25.2667668 34.8119185,25.2667668 34.8384097,25.2482605 C34.869316,25.2294405 35.0005103,25.1742352 35.00871,25.1701576 C35.0175404,25.1701576 35.073361,25.1491419 35.0840836,25.1478873 C35.0922833,25.1438096 35.2118089,25.0732347 35.2351463,25.065393 C35.2550147,25.0553557 35.319035,25.0236754 35.3272346,25.0158338 C35.411754,24.9803895 35.6003459,24.8969543 35.6154837,24.8884853 C35.6262063,24.8781343 35.6615278,24.8608827 35.6861268,24.8533547 C35.7082027,24.8467677 35.8129059,24.815401 35.8214209,24.7953264 C35.8769262,24.7802704 36.0320887,24.7112639 36.0560569,24.7031085 C36.0803405,24.6943259 36.2288802,24.6328473 36.2396028,24.623751 C36.2512715,24.6165367 36.3433598,24.5735644 36.3575515,24.5726234 C36.3707971,24.5676047 36.5656963,24.4885608 36.582411,24.4816602 C36.5981796,24.4735048 36.6804914,24.4452749 36.693737,24.4386879 C36.7095055,24.4295916 36.9170196,24.3470973 36.9286883,24.3430197 C36.9908164,24.3157307 37.116334,24.2693081 37.116334,24.2693081 C37.116334,24.2693081 37.1901308,24.2420192 37.2156759,24.2332365 C37.2431132,24.2206899 37.6057897,24.0867544 37.6124125,24.081422 C37.6215583,24.0732667 37.8429487,24.0055148 37.8606095,23.9939092 C37.8754319,23.9823035 38.0662313,23.9176883 38.0772693,23.9148653 C38.0958762,23.9126696 38.2261244,23.871893 38.2431544,23.8602873 C38.258923,23.8471134 38.460445,23.7759111 38.4781058,23.7740291 C38.4938743,23.7718335 38.5578946,23.7611688 38.5951084,23.7454855 C38.6332683,23.7269792 38.7969458,23.6818112 38.7969458,23.6818112 C38.7969458,23.6818112 38.9653539,23.613432 38.9826993,23.6099817 C39.0268512,23.6033947 39.0624882,23.5629317 39.1378618,23.5601087 C39.2059819,23.5594814 39.2308963,23.5403478 39.270633,23.5274875 C39.3106851,23.5143135 39.7818493,23.375673 39.8285242,23.369086 C39.8710993,23.3599897 39.9906249,23.3226634 39.9906249,23.3226634 C39.9906249,23.3226634 40.0013475,23.3198404 40.0543298,23.2891011 C40.1117273,23.2602438 40.2227379,23.2404828 40.2227379,23.2404828 C40.2227379,23.2404828 40.3290179,23.2235449 40.3397405,23.2194672 C40.3529861,23.2147622 40.5018412,23.1808863 40.5018412,23.1808863 C40.5787917,23.1504606 41.090008,23.0792584 41.2054338,23.0554198 C41.2628313,23.0450688 41.271977,23.0265625 41.3224364,23.0199755 C41.3763648,23.0180935 41.5706333,23.0265625 41.6261386,23.0083698 C41.6835361,22.9917455 41.7349416,23.0033512 41.7721554,23.0133885 C41.8005388,23.0199755 41.8828506,23.0397364 41.9739928,23.0344041 C42.0645042,23.0303265 42.2237666,23.0265625 42.3054477,23.0199755 C42.3883902,23.0180935 42.3883902,23.0397364 42.4830015,23.0199755 C42.5804511,23.0036648 42.8415783,23.0588701 42.8415783,23.0588701 C42.8576622,23.0588701 42.9122214,23.0814541 42.9320897,23.0754944 C42.9519581,23.0689074 43.0342699,23.0861591 43.0342699,23.0861591 C43.0541383,23.0808267 43.1619952,23.101215 43.2134006,23.1401096 C43.2648061,23.1764949 43.3171577,23.1764949 43.3171577,23.1764949 C43.328511,23.1724173 43.3950543,23.2053522 43.4524518,23.2053522 C43.5054341,23.2053522 43.585223,23.2053522 43.6341055,23.2128802 C43.682988,23.2213492 43.7179941,23.2235449 43.7775992,23.2348369 C43.8334199,23.2420512 43.8996478,23.2404828 43.8996478,23.2404828 C43.9545224,23.2464425 44.0216964,23.2900421 44.0485029,23.2953744 C44.0765709,23.3025888 44.1655055,23.3348964 44.1828509,23.3383467 C44.2027193,23.3424244 44.2935461,23.3693997 44.3007997,23.3693997 C44.4824533,23.402021 44.5660266,23.4528349 44.5720187,23.4559716 C44.5862104,23.4584809 44.6350929,23.4813785 44.6458155,23.4873382 C44.6565381,23.4945525 44.7451573,23.5268601 44.7893093,23.5318788 C44.829046,23.5378384 44.8608985,23.5663821 44.8823437,23.5663821 C44.9063119,23.5692051 45.0548516,23.6225283 45.0548516,23.6225283 C45.0573746,23.633193 45.0974267,23.6404073 45.119818,23.6422893 C45.1396864,23.6457396 45.2699346,23.7125505 45.2923259,23.7166282 C45.3137711,23.7225879 45.3869372,23.7633645 45.4068056,23.7646191 C45.4225741,23.7665011 45.5439919,23.83143 45.5512455,23.8348804 C45.5619681,23.8348804 45.6417569,23.8875763 45.6483797,23.8932223 C45.6591023,23.900123 45.7032543,23.9274119 45.717446,23.9296076 C45.7281686,23.9330579 45.8300334,23.9829308 45.8344486,23.9870085 C45.8385484,23.9901452 45.9098222,24.0233938 45.9337904,24.0233938 C45.9577586,24.0233938 46.0053796,24.0497417 46.0066411,24.0538194 C46.0971526,24.080481 46.1173363,24.1036923 46.1286897,24.10777 C46.1860872,24.127531 46.2368619,24.1670529 46.2456923,24.1683076 C46.2523151,24.1705033 46.3503955,24.2169259 46.363641,24.2169259 C46.3762559,24.2191215 46.4875818,24.2784044 46.4875818,24.2784044 C46.5273186,24.2878144 46.5670553,24.3301594 46.5695783,24.3358054 C46.609315,24.3524297 46.637383,24.3734453 46.637383,24.3734453 C46.6799581,24.3954019 46.7064493,24.4129673 46.7288406,24.4170449 C46.8098909,24.4565669 46.9319395,24.5456481 46.947708,24.5494121 C46.9653688,24.5534897 47.0274969,24.59458 47.0451577,24.608695 C47.0609262,24.6234373 47.1031859,24.6557449 47.1180084,24.6667232 C47.1779288,24.6924439 47.2135658,24.7228695 47.2151426,24.7297702 C47.308177,24.7802704 47.343814,24.8288887 47.3545366,24.8348484 C47.4393714,24.8834666 47.5891726,24.9904268 47.6159791,25.0246164 C47.6449932,25.0550421 47.7004985,25.0838994 47.7004985,25.0838994 C47.7329817,25.095505 47.7446504,25.1071107 47.785964,25.1243623 C47.8282237,25.1475736 47.8957131,25.2081112 47.925358,25.2278722 C47.9591027,25.2510835 48.0943968,25.3611803 48.0943968,25.3611803 C48.1227802,25.3831369 48.2956035,25.5195818 48.3258791,25.5217774 C48.3577316,25.5264824 48.4331052,25.5791783 48.4331052,25.5791783 C48.4331052,25.5791783 48.5169939,25.6506943 48.5324471,25.6823745 C48.5475849,25.7159368 48.609713,25.7576544 48.6179126,25.7617321 C48.6270584,25.7648688 48.733023,25.86336 48.7516299,25.9016272 C48.7689753,25.9383262 48.817227,25.9674972 48.817227,25.9674972 C48.8553869,26.0415224 48.8635866,26.0600287 48.8768321,26.0678704 C48.8881855,26.0769667 48.9257146,26.115234 48.9348604,26.1770262 C48.9723895,26.2573248 49.0014037,26.3288407 49.0064496,26.3771453 C49.0105494,26.4825371 49.0676316,26.5270777 49.0701545,26.5346057 C49.0811925,26.5499754 49.0862385,26.5854197 49.0862385,26.6180409 C49.0862385,26.6522306 49.1117835,26.6766965 49.1303904,26.7340975 C49.1502588,26.7877344 49.1426899,26.8536043 49.1426899,26.8536043 C49.1303904,26.9411172 49.1499434,26.9580552 49.1518356,26.9903628 C49.1568816,27.0509004 49.1499434,27.2438051 49.1499434,27.2438051 C49.1382747,27.3579796 49.0783542,27.4677628 49.0613242,27.4834461 C49.0461863,27.5013251 49.0231643,27.560608 49.0231643,27.560608 C49.0032959,27.6220866 48.9884735,27.6484346 48.9884735,27.6484346 C48.9818507,27.6625495 48.9793277,27.7177548 48.9752279,27.7252828 C48.9686051,27.7356338 48.9752279,27.8090317 48.9752279,27.8557679 C48.9752279,27.9009359 48.9865812,27.9150509 48.9752279,27.9457902 C48.9487367,28.0505547 48.8970159,28.1092103 48.8970159,28.1248936 C48.8970159,28.1405769 48.8714708,28.1703752 48.8440336,28.2177388 C48.8200654,28.2629067 48.797674,28.2895684 48.7932588,28.3366183 C48.789159,28.3839819 48.7118931,28.522936 48.6898172,28.53611 C48.6699488,28.549284 48.6232739,28.6019799 48.618228,28.6142129 C48.6100283,28.6286416 48.5810142,28.6901201 48.5501078,28.7167818 C48.5210937,28.7434434 48.4614886,28.8071177 48.4255363,28.8500899 C48.4189135,28.8626366 48.333448,28.9027859 48.333448,28.9027859 C48.333448,28.9027859 48.2776273,28.9225468 48.2312678,28.9601868 C48.194054,28.9871621 48.1025965,29.0571097 48.0893509,29.062442 C48.0786283,29.0687153 48.0388915,29.070911 47.9963165,29.0953769 C47.9591027,29.1217249 47.7815488,29.062442 47.7175285,29.0458177 C47.6554005,29.031389 47.5863342,29.031389 47.5607892,29.0357803 C47.5383978,29.037976 47.461132,28.9818298 47.4213952,28.9695968 C47.3791355,28.9564228 47.2744323,28.8902392 47.2570869,28.8902392 C47.2372186,28.8902392 47.1883361,28.8902392 47.1643679,28.8682826 C47.1400843,28.8472669 47.0341197,28.8099407 47.0205587,28.8046083 C47.0047902,28.800217 46.841428,28.7679094 46.8098909,28.7628907 C46.7789846,28.7559901 46.661982,28.7098811 46.642429,28.7142724 C46.6175147,28.7208594 46.5042965,28.6898065 46.4314458,28.6722412 C46.3917091,28.6640858 46.2614609,28.6615765 46.2390695,28.6691045 C46.2166782,28.6775735 46.1567577,28.6722412 46.0930528,28.6662815 C46.0315554,28.6615765 45.8234106,28.6549895 45.7925043,28.6691045 C45.7609672,28.6838468 45.6414416,28.6518529 45.6064354,28.6518529 C45.5726907,28.6518529 45.2365053,28.6518529 45.2049682,28.6691045 C45.1740618,28.6882381 45.0040769,28.6948251 44.8861281,28.6882381 C44.7691255,28.6829058 44.7360116,28.6691045 44.7224506,28.6778872 C44.7051052,28.6882381 44.5855796,28.6778872 44.5215593,28.6383652 C44.4518623,28.5988433 44.3755426,28.6487162 44.3465284,28.6643995 C44.3156221,28.6778872 44.1181999,28.6885518 44.0734172,28.6885518 C44.0317882,28.6885518 43.9122626,28.6782008 43.8927096,28.6970208 C43.8728413,28.7148998 43.7173634,28.7563037 43.6735268,28.7563037 C43.6312671,28.7563037 43.5754465,28.785161 43.5514783,28.7948847 C43.5275101,28.80304 43.3789704,28.7948847 43.3638326,28.810568 C43.348064,28.8271923 43.2594448,28.8447576 43.2260155,28.8447576 C43.1925861,28.8447576 43.0358468,28.8855342 43.0200782,28.9009039 C42.9980023,28.9159598 42.8964528,28.9081182 42.8699617,28.9184692 C42.8406322,28.9278792 42.6615015,28.9360345 42.612619,28.9360345 C42.5668902,28.9360345 42.5381914,28.9605004 42.4915165,28.9699104 C42.4442109,28.9780658 42.3521226,29.0119417 42.2830563,29.036094 C42.2124132,29.0571097 42.1282092,29.068088 42.0973028,29.068088 C42.0641889,29.068088 41.8667667,29.1220386 41.8068462,29.1308212 C41.7472411,29.1458772 41.632446,29.1910451 41.4905291,29.2133154 C41.3486122,29.2321354 41.2275097,29.297378 41.1521361,29.31808 C41.0811776,29.3378409 40.970167,29.3685802 40.9543985,29.3717169 C40.942099,29.3742262 40.7468844,29.4225308 40.6273588,29.4131208 C40.5053103,29.4049655 40.4523279,29.4984381 40.4299366,29.5320003 C40.4100682,29.5674446 40.1826858,29.6330009 40.1561946,29.6417835 C40.1297035,29.6496252 39.938904,29.754076 39.9161973,29.7656817 C39.8922291,29.780424 39.8439774,29.7904613 39.7922565,29.7970483 C39.7061603,29.8052036 39.6153334,29.8450393 39.5841117,29.8720145 C39.5494209,29.8980488 39.4854006,29.9388255 39.4604863,29.9479218 C39.4336798,29.9560771 39.3895278,29.9918351 39.2744174,30.0784069 C39.1589917,30.1634105 39.077626,30.1963454 38.9937373,30.2292804 C38.9066949,30.2622154 38.829429,30.3296536 38.818391,30.3368679 C38.8117683,30.3481599 38.7449096,30.3917595 38.7297718,30.3917595 C38.7140033,30.3917595 38.63043,30.4140298 38.6146614,30.4306541 C38.5970006,30.4497878 38.5455952,30.4827227 38.521627,30.490878 C38.4976588,30.5043657 38.3860175,30.5451423 38.3447039,30.5652169 C38.3046518,30.5837233 38.2466235,30.6081892 38.1958488,30.7007208 C38.1494893,30.7938796 38.0832614,30.8559856 37.9618435,30.9020945 C37.839795,30.9456941 37.820242,30.9977627 37.8041581,31.0175237 C37.7868127,31.0394803 37.7467606,31.0636326 37.7246846,31.0780613 C37.7032394,31.0874712 37.6672871,31.1219745 37.63575,31.1480088 C37.605159,31.1702791 37.5162244,31.1916084 37.498879,31.2242297 C37.4831104,31.2584193 37.4099444,31.3035873 37.3393013,31.3575379 C37.2730734,31.4136841 37.2623508,31.3992555 37.1352563,31.4491284 C37.010054,31.498374 36.9636945,31.5733403 36.9387802,31.6225859 C36.914812,31.6671265 36.8325002,31.7028844 36.806009,31.7154311 C36.7792025,31.726723 36.702252,31.7100987 36.6811221,31.760599 C36.6596769,31.8126676 36.6066946,31.8653635 36.5890338,31.8851245 C36.5716884,31.9026898 36.4669852,32.0529359 36.4379711,32.0576409 C36.41148,32.0582683 36.2783934,32.1790298 36.2455948,32.222002 C36.2146885,32.2637197 36.163283,32.3032416 36.1550834,32.3110833 C36.1036779,32.3220616 36.0062283,32.4274534 35.9891983,32.4318448 C35.9715375,32.4396864 35.892064,32.5463329 35.8721956,32.5607616 C35.8498043,32.5714262 35.7542469,32.6536068 35.7037875,32.6843461 C35.6530128,32.715399 35.581739,32.76339 35.5334872,32.8229866 C35.4846047,32.8857198 35.4467602,32.8954435 35.4246842,32.9343381 C35.4048159,32.974801 35.369179,32.9970713 35.3540412,32.9998943 C35.3382726,33.0089906 35.3717019,32.999267 35.2654219,33.0604319 C35.1591419,33.1266155 35.1036366,33.2241657 35.0900757,33.2533366 C35.0727303,33.2793709 35.0440315,33.3292439 34.9998796,33.3502595 C34.9573045,33.3722162 34.8844538,33.4239711 34.8686853,33.4314991 C34.8330483,33.4534557 34.7472674,33.5074063 34.7277144,33.5503786 C34.7119459,33.5920962 34.6920775,33.6256585 34.6630634,33.6473014 C34.6387798,33.6692581 34.5990431,33.726659 34.5681367,33.75583 L34.5653984,33.7609089 C34.614521,33.7608687 34.6636858,33.7608486 34.712892,33.7608486 C45.5991819,33.7608486 54.4406065,34.7423103 54.4406065,35.954944 C54.4406065,37.1509534 45.5991819,38.1499804 34.712892,38.1499804 C33.8916658,38.1499804 33.082,38.144277 32.286836,38.1332163 C32.2739318,38.1787317 32.2623981,38.2166484 32.2552062,38.2343566 C32.2277689,38.2992855 32.2154695,38.3817797 32.2236691,38.450159 C32.2350225,38.5169699 32.2211461,38.7403002 32.2154695,38.7854682 C32.2129465,38.8278131 32.1814094,38.8877234 32.1905551,38.9194037 C32.1993855,38.94732 32.2129465,39.0225999 32.1993855,39.0442428 C32.18614,39.0652585 32.1773096,39.171905 32.1905551,39.2164456 C32.2038007,39.2594179 32.2214615,39.5385808 32.2079006,39.5859444 C32.1930781,39.6345627 32.2038007,39.671889 32.2038007,39.671889 C32.2038007,39.671889 32.2353378,39.7368179 32.2353378,39.8058245 C32.2353378,39.8375047 32.2435375,39.909648 32.2504756,39.9206263 C32.2570984,39.9334866 32.2794898,40.0351145 32.2794898,40.0504841 C32.2794898,40.0683631 32.2993581,40.2016713 32.300935,40.2091992 C32.3059809,40.2182956 32.3327874,40.2804015 32.3365719,40.3158458 C32.3431947,40.3487807 32.396177,40.4469583 32.4005922,40.4664056 C32.4031152,40.4855392 32.4343369,40.5404308 32.4428519,40.5479588 C32.4545206,40.5554868 32.5289482,40.6480183 32.5399862,40.660565 C32.5516549,40.670916 32.6513121,40.8076744 32.6781186,40.8848363 C32.7046098,40.9588616 32.7393006,40.9896009 32.7534923,41.0081072 C32.7683147,41.0266135 32.7790373,41.0567254 32.7859755,41.0799367 C32.7976442,41.1009524 32.8771177,41.168077 32.8815329,41.1759186 C32.8840559,41.1834466 32.9370382,41.2295555 32.9613218,41.2552762 C32.9852899,41.2860155 32.9852899,41.2596675 33.049941,41.3214597 C33.1136459,41.3848203 33.1678897,41.393603 33.1984807,41.4742152 C33.2243411,41.5403988 33.3091759,41.5996817 33.3091759,41.5996817 C33.3091759,41.5996817 33.3555354,41.6235203 33.368781,41.6611603 C33.3795036,41.6994276 33.412933,41.7047599 33.4268093,41.7151109 C33.4394241,41.7207569 33.4709612,41.7671795 33.4816838,41.7765895 C33.4924064,41.7888224 33.5463349,41.838068 33.5463349,41.838068 C33.5463349,41.838068 33.60594,41.8986056 33.6236007,41.9252673 C33.6917209,41.9704352 33.7141122,42.0021155 33.7141122,42.0021155 C33.7913781,42.0626531 33.8162924,42.0786501 33.827015,42.0811594 C33.8377376,42.0811594 33.8758975,42.1024887 33.8891431,42.1222497 C33.905227,42.1442063 33.9572632,42.1956476 33.9689319,42.2063122 C33.9771316,42.2141539 34.0222296,42.2467752 34.039575,42.2530485 C34.0572358,42.2630858 34.0969725,42.3051171 34.1149487,42.3415024 C34.1695079,42.3647137 34.1896916,42.372869 34.2146059,42.3797696 C34.2395202,42.3876113 34.3139478,42.4515992 34.3249857,42.4606955 C34.391529,42.4845342 34.4249583,42.5206058 34.4388347,42.5253108 C34.4495573,42.5340934 34.4896094,42.5660874 34.500332,42.575811 C34.5069548,42.5858484 34.5905281,42.6626966 34.606612,42.6692836 C34.6223806,42.6783799 34.6463487,42.7022185 34.6662171,42.7113149 C34.7258222,42.7618151 34.7374909,42.7665201 34.7482136,42.7768711 C34.7617745,42.7884768 34.8853999,42.8301944 34.9008531,42.8424274 C34.916937,42.855915 34.9822188,42.9104929 34.9913646,42.9271172 C35.0005103,42.9428006 35.0222709,42.9572292 35.0686304,42.9631889 C35.1108902,42.9688349 35.1534652,42.9688349 35.1799564,42.9845182 C35.1998248,42.9995741 35.2354617,43.0262358 35.2569069,43.0293724 C35.2811905,43.0353321 35.3366958,43.069208 35.3366958,43.069208 C35.3366958,43.069208 35.3988238,43.0845777 35.4120694,43.094615 C35.4587443,43.128491 35.5208724,43.1661309 35.531595,43.1661309 C35.5407408,43.1661309 35.5823697,43.1990659 35.5981383,43.2037709 C35.615799,43.2103579 35.7000031,43.2407835 35.7618158,43.324846 C35.7618158,43.324846 35.8397124,43.342725 35.8744032,43.350253 C35.9100401,43.357781 35.9699606,43.382247 35.9832062,43.384129 C35.9939288,43.3897749 36.068041,43.4170639 36.0894862,43.4283559 C36.1134544,43.4402752 36.1840975,43.4738375 36.1982892,43.4738375 C36.2064888,43.4738375 36.2979464,43.4879525 36.3487211,43.5337478 C36.3638589,43.5434714 36.3991805,43.5434714 36.4152644,43.5472354 C36.4326098,43.5497447 36.4922149,43.5638597 36.5029375,43.575779 C36.5146063,43.5845617 36.6025947,43.6231426 36.6025947,43.6231426 C36.6025947,43.6231426 36.6628306,43.6287886 36.6697688,43.6309843 C36.6804914,43.634121 36.7451424,43.6689379 36.755865,43.6689379 C36.7665876,43.6689379 36.8596221,43.6836802 36.8993588,43.7043822 C36.9419339,43.7232022 37.0056388,43.7498638 37.0147846,43.7498638 C37.0280302,43.7498638 37.107819,43.7705658 37.127372,43.7677428 C37.1472404,43.7677428 37.2629815,43.7755844 37.2869497,43.7947181 C37.309341,43.8113424 37.4105751,43.8467867 37.4288666,43.850237 C37.4503119,43.8552557 37.5657376,43.8612153 37.5925442,43.8825446 C37.6190353,43.9010509 37.6811634,43.9051286 37.6985088,43.9032466 C37.7136466,43.9019919 37.8473639,43.9270852 37.8606095,43.9368089 C37.8688091,43.9459052 37.9287296,43.9477872 37.9536439,43.9512375 C37.9776121,43.9540605 38.0507782,43.9678618 38.0662313,43.9738215 C38.0769539,43.9826041 38.2018408,44.0083248 38.2166633,44.0055018 C38.2324318,44.0029925 38.4222851,44.0293404 38.4541376,44.0415734 C38.4847286,44.0556884 38.5462259,44.0647847 38.5660943,44.0647847 C38.5818628,44.0647847 38.7237798,44.071999 38.7436481,44.0773314 C38.7635165,44.084232 38.9048027,44.1083843 38.9205712,44.107757 C38.9363398,44.1065023 39.1889519,44.107757 39.2573874,44.1149713 C39.3239307,44.122813 39.4343105,44.1206173 39.4475561,44.1206173 C39.4652169,44.1206173 39.5655048,44.1272043 39.5964112,44.1272043 C39.6295251,44.1272043 39.6717848,44.1149713 39.6894456,44.1149713 C39.704268,44.112462 39.8770913,44.1206173 39.8991673,44.1206173 C39.9240816,44.1206173 39.9789561,44.1108936 39.9947247,44.1108936 C40.0063934,44.1108936 40.295904,44.10117 40.3533015,44.1065023 C40.4129066,44.107757 40.4794498,44.107757 40.4996336,44.1065023 C40.5217096,44.1008563 40.6746645,44.09176 40.7093553,44.09176 C40.7475152,44.09176 40.827304,44.0886233 40.8355036,44.0886233 C40.8427572,44.0886233 41.0944232,44.071999 41.1127147,44.0698034 C41.1341599,44.0676077 41.4164169,44.0487877 41.4164169,44.0487877 C41.4164169,44.0487877 41.5558109,44.0393777 41.5999628,44.0343591 C41.6441148,44.0290268 41.8150458,44.0017378 41.8349142,44.0017378 C41.8522596,44.0017378 42.0140449,43.9816631 42.0339133,43.9763308 C42.0537816,43.9738215 42.2083134,43.9678618 42.2351199,43.9565699 C42.2616111,43.9481009 42.325316,43.9424549 42.3653681,43.9386909 C42.4006897,43.9368089 42.5362992,43.9170479 42.5476525,43.9135976 C42.5583752,43.9082652 42.7513822,43.8841129 42.7636816,43.882231 C42.7778733,43.882231 42.9106445,43.8433363 42.9809722,43.835181 C43.0500385,43.833299 43.1071206,43.812597 43.1601029,43.8038144 C43.2108776,43.7928361 43.325988,43.7780938 43.3486948,43.7749571 C43.3685631,43.7705658 43.6101373,43.7279072 43.6300056,43.7279072 C43.6476664,43.7279072 43.8864022,43.6689379 43.9223545,43.6614099 C43.9548377,43.6519999 44.2030347,43.5986767 44.2172264,43.5930307 C44.2295258,43.589894 44.4004569,43.5472354 44.4219021,43.5403347 C44.4417705,43.5346888 44.7672333,43.4421572 44.7896246,43.4402752 C44.809493,43.4349429 44.9381643,43.4063993 44.948887,43.4048309 C44.9605557,43.4020079 45.130856,43.350253 45.1639699,43.342725 C45.1948763,43.3348834 45.3651766,43.2875198 45.3809452,43.2875198 C45.3941907,43.2875198 45.5960281,43.2200815 45.6181041,43.2103579 C45.6398647,43.2025162 45.9145528,43.1215903 45.9303214,43.1159443 C45.9451438,43.1102983 46.324535,42.9948692 46.3768866,42.9823225 C46.4323919,42.9725988 46.6231913,42.8998283 46.6354908,42.8998283 C46.6446366,42.8998283 46.8887337,42.8151384 46.908602,42.8088651 C46.9259474,42.8060421 47.3135383,42.6733613 47.3425525,42.6620693 C47.3734588,42.6520319 47.5898033,42.586162 47.5989491,42.586162 C47.6055718,42.586162 47.8711142,42.4773198 47.908328,42.4735559 C47.950903,42.4701055 48.0076698,42.4161549 48.0369993,42.4142729 C48.0634905,42.4108226 48.1325567,42.3825926 48.1325567,42.3825926 C48.1899542,42.370046 48.3157872,42.3057444 48.3466936,42.3066854 C48.3757077,42.3091947 48.433736,42.2834741 48.4447739,42.2803374 C48.4624347,42.2737505 48.5573614,42.2489708 48.5775451,42.2417565 C48.5933137,42.2357968 48.6390425,42.2172905 48.685402,42.2147812 C48.7342845,42.2128992 48.8033507,42.2210545 48.8033507,42.2210545 C48.7970433,42.2640268 48.7588834,42.2906884 48.7588834,42.2906884 C48.7588834,42.2906884 48.7055857,42.3286421 48.7055857,42.3421297 C48.6708949,42.387925 48.6444038,42.4559905 48.6481882,42.4672825 C48.6481882,42.4951988 48.6532341,42.5761247 48.6440884,42.5827117 C48.6349426,42.59369 48.5977289,42.625684 48.5882677,42.6357213 C48.5245628,42.6680289 48.4624347,42.7166472 48.4340513,42.7743618 C48.3984144,42.831449 48.3205178,42.875676 48.2829886,42.883204 C48.2476671,42.890732 48.1877466,42.9393502 48.1552634,42.9478192 C48.1199419,42.9569155 48.0218615,43.0218444 47.9934781,43.0268631 C47.9206274,43.0428601 47.7560038,43.1592303 47.7364508,43.1777366 C47.7165824,43.1987522 47.6352167,43.2636811 47.6301708,43.2740321 C47.623548,43.2828148 47.5620507,43.2981844 47.5529049,43.3025757 C47.5462821,43.3091627 47.4283334,43.370014 47.4226567,43.3753463 C47.4135109,43.378483 47.3580057,43.4104769 47.3447601,43.4170639 C47.271594,43.4628592 47.2633944,43.4961078 47.2359571,43.5083408 C47.2091506,43.5212011 47.1943281,43.6005587 47.1918052,43.628475 C47.18739,43.6560776 47.167837,43.7206928 47.151753,43.7275935 C47.1359845,43.7310438 47.0836329,43.7925224 47.0697566,43.8041281 C47.059034,43.818243 47.0297045,43.8609016 47.0082593,43.8715663 C46.9842911,43.8819173 46.9420314,43.9079516 46.9328856,43.9201846 C46.877065,43.9860545 46.854989,44.0161664 46.8250287,44.0409461 C46.81336,44.0481604 46.8064219,44.0494151 46.7575394,44.0745084 C46.7114952,44.0952103 46.7004572,44.1300273 46.6780659,44.1485336 C46.6540977,44.1670399 46.6140456,44.1808412 46.5717859,44.2024842 C46.5184882,44.2263228 46.4503681,44.2777641 46.4364917,44.2890561 C46.4238769,44.3003481 46.3658486,44.328578 46.3308425,44.328578 C46.2952055,44.328578 46.2422232,44.4004076 46.1864026,44.4236189 C46.1290051,44.4487122 46.0870607,44.4850975 46.064354,44.5004671 C46.0318708,44.5233648 45.8984689,44.5810793 45.8767083,44.5876663 C45.8546323,44.5933123 45.7786279,44.6359709 45.7530829,44.6582412 C45.7231226,44.6811389 45.6635175,44.6911762 45.6433338,44.6943129 C45.6218886,44.6999588 45.5711138,44.7297571 45.5379999,44.7532821 C45.5039398,44.7771207 45.39356,44.852087 45.3758992,44.8800033 C45.3560309,44.9091742 45.3030485,44.9154476 45.2803418,44.9176432 C45.2588966,44.9223482 45.1567164,44.9565378 45.1434708,44.9684571 C45.1302253,44.9816311 45.1343251,45.0023331 45.0813428,45.0114294 C45.0255221,45.0214667 44.9999771,45.052206 44.9731705,45.0741627 C44.9457332,45.0948646 44.8463914,45.1745359 44.831569,45.1895919 C44.815485,45.2065298 44.7719639,45.2291138 44.7360116,45.2378965 C44.7010054,45.2466791 44.6745142,45.2877694 44.6562227,45.3018844 C44.6385619,45.316313 44.5616114,45.347366 44.5348049,45.355835 C44.510206,45.3649313 44.4370399,45.3746549 44.3995108,45.4053942 C44.359774,45.4361335 44.3216141,45.4568355 44.3001689,45.4838108 C44.2683164,45.5145501 44.2273182,45.5255284 44.2087113,45.5321154 C44.1929428,45.5396434 44.1364914,45.596417 44.1292379,45.60865 C44.1210382,45.6233923 44.0626946,45.6371936 44.0097123,45.6704422 C43.9538916,45.7030635 43.90154,45.7162375 43.8580188,45.7190605 C43.8107132,45.7212561 43.7823298,45.7610917 43.6911876,45.7805391 C43.6006761,45.8024957 43.6448281,45.8065734 43.5849076,45.8137877 C43.5300331,45.8203747 43.4988113,45.8203747 43.4745278,45.8432723 C43.4502442,45.8683656 43.3764474,45.8975366 43.3496409,45.9006732 C43.2701674,45.9088285 43.2789978,45.9392542 43.2370534,45.9696798 C43.1929015,46.0001054 43.0935597,46.0139067 43.0494077,46.0226894 C43.0021021,46.0292764 42.9182134,46.0468417 42.9005526,46.056879 C42.8822611,46.0684847 42.8210792,46.0819723 42.8103565,46.083227 C42.8027876,46.0838543 42.7387673,46.0998513 42.7280447,46.102988 C42.7173221,46.1064383 42.6350103,46.0998513 42.6085191,46.1268266 C42.5836048,46.1572522 42.4956163,46.1732492 42.4489414,46.1732492 C42.4041588,46.1732492 42.364422,46.2027338 42.3495996,46.2027338 C42.336354,46.2027338 42.2789565,46.2074388 42.2590881,46.2187308 C42.238589,46.2253178 42.1502851,46.2416284 42.0973028,46.2438241 C42.0414822,46.2482154 41.9579089,46.293697 41.9446633,46.302166 C41.9314177,46.3112623 41.9247949,46.3169083 41.8667667,46.3169083 C41.8093691,46.3169083 41.8071615,46.348275 41.7655326,46.3554893 C41.7166501,46.3608216 41.7034045,46.3683496 41.6832208,46.3708589 C41.6608294,46.3752502 41.6302384,46.3805826 41.5876634,46.3984616 C41.5435114,46.4191635 41.4757067,46.4163405 41.3974947,46.4138312 C41.316129,46.4075579 41.3445124,46.4163405 41.3044603,46.4223002 C41.2647235,46.4304555 41.2117412,46.4687228 41.1918728,46.4941298 C41.1720045,46.5204777 41.0811776,46.4975801 41.0673013,46.5088721 C41.0572094,46.5160864 40.9991812,46.529574 40.9991812,46.529574 C40.9991812,46.529574 40.9458835,46.5126361 40.9036238,46.5411797 C40.8619948,46.570037 40.7226008,46.576624 40.6885408,46.5807016 C40.6554268,46.584152 40.5582926,46.6148913 40.545047,46.6214782 C40.5343244,46.6252422 40.4520126,46.6631959 40.4321442,46.6672735 C40.4097529,46.6685282 40.3640241,46.6798202 40.2662591,46.7278111 C40.1669172,46.7745474 40.089336,46.7673331 40.0628448,46.7635691 C40.0404535,46.7623144 39.9382733,46.814383 39.9234509,46.824734 C39.9061055,46.8310073 39.8506002,46.8526503 39.841139,46.8526503 C39.8304164,46.8526503 39.779011,46.8677063 39.7657654,46.8642559 C39.7525198,46.8614329 39.5888423,46.8614329 39.5841117,46.8692746 C39.5774889,46.8752342 39.5068458,46.8752342 39.4431409,46.8705292 C39.3810128,46.8677063 39.3103697,46.9222842 39.298701,46.9291848 C39.2905014,46.9363992 39.2331038,46.9696478 39.2331038,46.9696478 C39.2331038,46.9696478 39.1375465,47.0138747 39.1261931,47.0138747 C39.1179935,47.0138747 38.9823839,47.0094834 38.9716613,47.018266 C38.8947108,47.0835086 38.7209414,47.0555923 38.7076958,47.0581017 C38.673005,47.0797446 38.5736632,47.068139 38.5553717,47.0825676 C38.5377109,47.0966826 38.36268,47.0922913 38.36268,47.0922913 C38.36268,47.0922913 38.2989751,47.0966826 38.258923,47.1045243 C38.2191862,47.1107976 38.1554813,47.0941733 38.1198444,47.0966826 C38.0823152,47.1026423 37.9779275,47.1107976 37.9539593,47.1107976 C37.929045,47.1107976 37.7281537,47.1045243 37.7041855,47.1107976 C37.6792712,47.1205212 37.6325963,47.1230306 37.6218737,47.1230306 C37.6127279,47.1230306 37.5572226,47.1086019 37.5348313,47.1086019 C37.5108631,47.1086019 37.4534656,47.0954279 37.4294974,47.0954279 C37.407106,47.0954279 37.3673693,47.1086019 37.3538084,47.1107976 C37.3405628,47.1173846 37.2809577,47.1064063 37.2450054,47.1026423 C37.2144144,47.0966826 37.1904462,47.0957416 37.1680549,47.1089156 C37.1481865,47.1208349 37.0642978,47.1189529 37.0327607,47.1111113 C36.9996468,47.1067199 36.979463,47.1176982 36.9397263,47.1374592 C36.8971512,47.1553382 36.8227237,47.1374592 36.8069551,47.1289902 C36.7933942,47.1211486 36.7120285,47.1211486 36.7006751,47.1280492 C36.6899525,47.1346362 36.632555,47.1280492 36.6208863,47.1321269 C36.6101637,47.1377729 36.5612812,47.1377729 36.5502432,47.1377729 C36.5344746,47.1412232 36.4830692,47.1427915 36.4748695,47.1500059 C36.443017,47.1688258 36.3925577,47.1625525 36.3834119,47.1556519 C36.2913236,47.1484375 36.2332954,47.1650618 36.2332954,47.1650618 C36.2332954,47.1650618 36.1626523,47.1650618 36.1446761,47.1559655 C36.1298537,47.1487512 36.0409191,47.1503195 36.0327194,47.1528289 C36.0254659,47.1581612 35.9258087,47.1528289 35.9106709,47.1462419 C35.8908025,47.1380866 35.8400278,47.1484375 35.8293052,47.1503195 C35.8135366,47.1515742 35.7312248,47.1324406 35.7141948,47.1239716 C35.6955879,47.1161299 35.631883,47.1195802 35.6186374,47.1214622 C35.6069687,47.1239716 35.5628167,47.1183256 35.5429484,47.1117386 C35.52308,47.1054653 35.4458141,47.1117386 35.4303609,47.1117386 C35.4171153,47.1161299 35.3638177,47.1073473 35.355618,47.0998193 C35.3467876,47.0951143 35.290967,47.0879 35.2777214,47.0879 C35.2685756,47.0879 35.2203239,47.0744123 35.2086551,47.0659433 C35.1963557,47.056847 35.1424272,47.056847 35.1332815,47.0593563 C35.1272894,47.062493 35.0493928,47.036145 35.0370934,47.030499 C35.0210094,47.028617 34.8343098,47.028617 34.8198028,47.028617 C34.7507365,47.0016417 34.6983849,46.9887814 34.6867162,46.9887814 C34.6753629,46.9887814 34.6271111,46.9608651 34.595574,46.9492595 C34.5646677,46.9392222 34.5142083,46.9558465 34.5142083,46.9558465 C34.5142083,46.9558465 34.450188,46.9492595 34.4394654,46.9404768 C34.4236969,46.9329488 34.3924751,46.9116195 34.3640917,46.9116195 C34.3366545,46.9116195 34.2902949,46.9028369 34.2660114,46.8890356 C34.2445662,46.8720976 34.1556315,46.8692746 34.1449089,46.8692746 C34.1307172,46.8692746 34.0758427,46.8567279 34.0666969,46.8470043 C34.0625971,46.8394763 34.0137146,46.8203426 33.9979461,46.8203426 C33.9828083,46.8203426 33.9430715,46.7996407 33.9165804,46.7773704 C33.8897738,46.7554137 33.7570027,46.7510224 33.7412341,46.7510224 C33.684152,46.7365938 33.5529577,46.7055408 33.5356123,46.6848388 C33.5179515,46.6647642 33.4533004,46.6559815 33.435955,46.6559815 C33.4186096,46.6559815 33.3233676,46.6406119 33.2883614,46.6189689 C33.2410558,46.5857203 33.1969039,46.5904253 33.1770355,46.5781923 C33.1571671,46.5678413 33.0307034,46.5113814 33.0149348,46.5076174 C33.0016892,46.5019714 32.904555,46.4702911 32.8846866,46.4611948 C32.8663951,46.4546078 32.7784066,46.4361015 32.7295241,46.3925019 C32.6831646,46.3495296 32.6522582,46.3611353 32.6301823,46.3495296 C32.6103139,46.3391786 32.566162,46.3103213 32.5437706,46.3103213 C32.5239022,46.3103213 32.3580171,46.2287681 32.3472945,46.2221811 C32.3381488,46.2159078 32.256783,46.1879915 32.2365993,46.1817182 C32.181094,46.1638392 32.1454571,46.1462739 32.1454571,46.1462739 C32.1454571,46.1462739 32.0949978,46.0979693 32.0700834,46.0857363 C32.0461153,46.0778947 31.9505579,46.0223757 31.9306895,46.0079471 C31.9082981,45.9913228 31.8177867,45.9430182 31.8029643,45.9452138 C31.7871957,45.9474095 31.7231754,45.8878129 31.714345,45.8780893 C31.7051993,45.8705613 31.5963963,45.8003 31.5724281,45.7886944 C31.5500367,45.7755204 31.4901163,45.7504271 31.4793937,45.7450948 C31.468671,45.7378804 31.4330341,45.6908305 31.4021278,45.6845572 C31.3693292,45.6782839 31.3027859,45.6221376 31.2933248,45.6171189 C31.2851252,45.6105319 31.19146,45.5594044 31.1807374,45.5490534 C31.1655996,45.5377614 31.023998,45.4499348 31.0104371,45.4417795 C30.9971915,45.4333105 30.8688355,45.3376423 30.8571668,45.324782 C30.8511747,45.3109807 30.8272065,45.2771047 30.8048152,45.2692631 C30.7824239,45.2592258 30.735749,45.2404058 30.7269186,45.2275455 C30.7177728,45.2149988 30.6780361,45.1701445 30.6654212,45.1682625 C30.6496527,45.1644986 30.574279,45.109607 30.5660794,45.096433 C30.5544107,45.0842 30.4837676,45.0277401 30.4749372,45.0277401 C30.4642146,45.0277401 30.4175397,45.0026468 30.4153321,44.9863361 C30.4134398,44.9722211 30.3339664,44.9025872 30.3339664,44.9025872 C30.3339664,44.9025872 30.2475547,44.841736 30.2317862,44.8241707 C30.2160176,44.80786 30.1494744,44.7451268 30.1280291,44.7344621 C30.1005919,44.7165832 30.0154417,44.6249926 30.0034576,44.619033 C29.9883198,44.6130733 29.9280839,44.5017218 29.9173613,44.4916845 C29.9091617,44.4832155 29.8482951,44.4333425 29.8482951,44.4333425 C29.8482951,44.4333425 29.7511608,44.3423793 29.7404382,44.337047 C29.7312925,44.3329693 29.6890328,44.2617671 29.6697951,44.2561211 C29.6464577,44.2485931 29.5121097,44.121872 29.5029639,44.107757 C29.4922413,44.09176 29.4566044,44.0487877 29.4417819,44.0227534 C29.4275903,43.9964055 29.3396018,43.9371225 29.3396018,43.9371225 L29.2465673,43.8336127 L29.1361875,43.6949722 L29.0034163,43.5641734 L28.9343501,43.4845022 C28.9343501,43.4845022 28.8173475,43.3289237 28.7924332,43.3166907 C28.765942,43.3053987 28.618033,43.1027703 28.618033,43.1027703 C28.618033,43.1027703 28.5199527,42.9672665 28.5067071,42.9584839 C28.4934615,42.9544062 28.4493096,42.8668933 28.4206108,42.8418 C28.3915967,42.8157657 28.3319916,42.6978272 28.3319916,42.6978272 C28.288155,42.648268 28.2837398,42.611569 28.2837398,42.611569 L28.2414801,42.5532271 C28.2414801,42.5532271 28.2058432,42.4779472 28.1925976,42.4704192 C28.1768291,42.4619502 28.0932558,42.3411887 28.0847407,42.3330334 C28.0771718,42.3258191 27.9377779,42.0817867 27.9377779,42.0817867 C27.9377779,42.0817867 27.8781728,41.9613389 27.8696578,41.9553792 C27.857989,41.9487922 27.7968071,41.8277171 27.7968071,41.8277171 L27.7277408,41.6903312 C27.7277408,41.6903312 27.6703433,41.5912127 27.6637205,41.5799207 C27.6463751,41.5403988 27.617361,41.5015042 27.6107382,41.4817432 C27.606323,41.4638642 27.5353645,41.3224007 27.5284264,41.3035808 C27.5218036,41.2857018 27.4820669,41.1944249 27.4735518,41.1878379 C27.4398071,41.1138127 27.3360501,40.8600567 27.3291119,40.8484511 C27.3202816,40.8393547 27.298521,40.7612518 27.298521,40.7612518 C27.2802294,40.7079286 27.2095864,40.5507818 27.2029636,40.5194152 C27.1985484,40.4899305 27.1282206,40.3227464 27.1165519,40.3054948 C27.1051986,40.2863611 27.0742922,40.1517983 27.0686155,40.147407 C27.0597852,40.1395653 27.0105873,40.0040615 27.0090104,39.9745769 C27.0039645,39.9422693 26.9443594,39.7851225 26.9352136,39.7779082 C26.9292216,39.7716348 26.9046226,39.6364447 26.9046226,39.6364447 C26.9046226,39.6364447 26.8664628,39.4821209 26.8582631,39.4792979 C26.8500635,39.4739656 26.796135,39.2007623 26.796135,39.2007623 C26.796135,39.2007623 26.7809972,39.0517708 26.7746898,39.0225999 C26.7671209,38.9912332 26.7504063,38.9128167 26.7428373,38.9043477 C26.7321147,38.8924284 26.7346377,38.7340269 26.7346377,38.7340269 C26.7346377,38.7340269 26.7147693,38.5213612 26.7031006,38.5116375 C26.6964778,38.5016002 26.6873321,38.438867 26.6964778,38.406873 C26.7031006,38.3780157 26.6857552,38.2757605 26.6857552,38.2757605 C26.6857552,38.2757605 26.6816554,38.1666047 26.6816554,38.1352381 C26.6816554,38.1041851 26.694901,38.0414518 26.6904858,37.9947156 C26.6889951,37.979889 26.6862107,37.967718 26.6827994,37.9573289 C19.8043434,37.6109615 15,36.8364566 15,35.954944 C15,35.0451562 19.9807169,34.265206 27.060203,33.9325922 Z M54.2335993,40.3293975 C55.0743782,40.3293975 55.7540026,41.0069165 55.7540026,41.8450327 C55.7540026,42.6828353 55.0743782,43.3619227 54.2335993,43.3619227 C53.3877744,43.3619227 52.705627,42.6828353 52.705627,41.8450327 C52.705627,41.0069165 53.3877744,40.3293975 54.2335993,40.3293975 Z" id="Combined-Shape"></path>
        </g>
    </g>
</svg>